<?xml version="1.0" encoding="UTF-8"?>
<svg xmlns="http://www.w3.org/2000/svg" xmlns:xlink="http://www.w3.org/1999/xlink" width="186.97pt" height="271pt" viewBox="0 0 186.97 271" version="1.1">
<defs>
<clipPath id="clip1">
  <path d="M 0 0 L 186.96875 0 L 186.96875 271 L 0 271 Z M 0 0 "/>
</clipPath>
</defs>
<g id="surface1">
<g clip-path="url(#clip1)" clip-rule="nonzero">
<path style=" stroke:none;fill-rule:nonzero;fill:rgb(100%,100%,100%);fill-opacity:1;" d="M 0 271 L 186.96875 271 L 186.96875 0 L 0 0 Z M 0 271 "/>
</g>
<path style=" stroke:none;fill-rule:nonzero;fill:rgb(17.298889%,20.399475%,54.499817%);fill-opacity:1;" d="M 182.46875 4.40625 L 182.46875 210.4375 L 92.789063 267.003906 L 4.03125 210.894531 L 4.949219 4.40625 L 182.46875 4.40625 "/>
<path style=" stroke:none;fill-rule:nonzero;fill:rgb(81.999207%,77.999878%,53.29895%);fill-opacity:1;" d="M 30.9375 24.183594 L 36.683594 24.183594 L 36.683594 48.328125 L 30.9375 48.328125 L 30.9375 24.183594 "/>
<path style=" stroke:none;fill-rule:nonzero;fill:rgb(81.999207%,77.999878%,53.29895%);fill-opacity:1;" d="M 120.613281 24.183594 L 126.359375 24.183594 L 126.359375 48.328125 L 120.613281 48.328125 L 120.613281 24.183594 "/>
<path style=" stroke:none;fill-rule:nonzero;fill:rgb(81.999207%,77.999878%,53.29895%);fill-opacity:1;" d="M 101.203125 43.957031 L 101.203125 24.183594 L 96.566406 24.183594 L 96.566406 48.328125 L 111.875 48.328125 L 111.875 43.957031 L 101.203125 43.957031 "/>
<path style=" stroke:none;fill-rule:nonzero;fill:rgb(81.999207%,77.999878%,53.29895%);fill-opacity:1;" d="M 62.296875 24.410156 L 45.148438 24.410156 L 45.148438 28.78125 L 51.402344 28.78125 L 51.402344 48.328125 L 56.042969 48.328125 L 56.042969 28.78125 L 62.296875 28.78125 L 62.296875 24.410156 "/>
<path style=" stroke:none;fill-rule:nonzero;fill:rgb(81.999207%,77.999878%,53.29895%);fill-opacity:1;" d="M 75.023438 39.820313 L 77.84375 32.230469 L 80.226563 39.820313 Z M 82.902344 48.328125 L 88.191406 48.328125 L 79.453125 24.410156 L 75.316406 24.410156 L 66.804688 48.328125 L 71.863281 48.328125 L 73.65625 43.496094 L 81.386719 43.496094 L 82.902344 48.328125 "/>
<path style=" stroke:none;fill-rule:nonzero;fill:rgb(81.999207%,77.999878%,53.29895%);fill-opacity:1;" d="M 142.398438 39.820313 L 145.21875 32.230469 L 147.605469 39.820313 Z M 150.273438 48.328125 L 155.5625 48.328125 L 146.824219 24.410156 L 142.6875 24.410156 L 134.179688 48.328125 L 139.238281 48.328125 L 141.03125 43.496094 L 148.761719 43.496094 L 150.273438 48.328125 "/>
<path style=" stroke:none;fill-rule:nonzero;fill:rgb(6.298828%,56.898499%,27.099609%);fill-opacity:1;" d="M 16.332031 60.972656 L 57.722656 60.972656 L 57.722656 205.148438 L 38.0625 216.527344 L 16.679688 205.148438 L 16.332031 60.972656 "/>
<path style=" stroke:none;fill-rule:nonzero;fill:rgb(93.299866%,14.498901%,14.099121%);fill-opacity:1;" d="M 129.121094 60.972656 L 170.511719 60.972656 L 170.511719 205.148438 L 150.855469 216.527344 L 129.46875 205.148438 L 129.121094 60.972656 "/>
<path style=" stroke:none;fill-rule:nonzero;fill:rgb(100%,100%,100%);fill-opacity:1;" d="M 62.550781 60.972656 L 124.640625 60.972656 L 124.640625 233.777344 L 92.90625 253.78125 L 62.207031 233.777344 L 62.550781 60.972656 "/>
<path style=" stroke:none;fill-rule:nonzero;fill:rgb(81.999207%,77.999878%,53.29895%);fill-opacity:1;" d="M 93.421875 215.261719 L 97.644531 223.339844 L 106.199219 224.542969 L 100.394531 230.828125 L 101.320313 239.5625 L 93.421875 235.679688 L 85.527344 239.5625 L 86.835938 230.675781 L 80.644531 224.542969 L 89.628906 223.765625 L 93.421875 215.261719 "/>
<path style=" stroke:none;fill-rule:nonzero;fill:rgb(80.39856%,48.999023%,16.099548%);fill-opacity:1;" d="M 80.644531 224.542969 L 93.71875 227.914063 L 86.835938 230.675781 Z M 80.644531 224.542969 "/>
<path style=" stroke:none;fill-rule:nonzero;fill:rgb(80.39856%,48.999023%,16.099548%);fill-opacity:1;" d="M 85.527344 239.5625 L 93.71875 227.914063 L 93.421875 235.679688 Z M 85.527344 239.5625 "/>
<path style=" stroke:none;fill-rule:nonzero;fill:rgb(80.39856%,48.999023%,16.099548%);fill-opacity:1;" d="M 101.320313 239.5625 L 93.71875 227.914063 L 100.394531 230.828125 Z M 101.320313 239.5625 "/>
<path style=" stroke:none;fill-rule:nonzero;fill:rgb(80.39856%,48.999023%,16.099548%);fill-opacity:1;" d="M 106.199219 224.542969 L 93.875 227.804688 L 97.644531 223.339844 Z M 106.199219 224.542969 "/>
<path style=" stroke:none;fill-rule:nonzero;fill:rgb(80.39856%,48.999023%,16.099548%);fill-opacity:1;" d="M 93.40625 215.398438 L 93.71875 227.914063 L 89.628906 223.765625 Z M 93.40625 215.398438 "/>
<path style=" stroke:none;fill-rule:nonzero;fill:rgb(81.999207%,77.999878%,53.29895%);fill-opacity:1;" d="M 93.421875 179.089844 L 97.644531 187.164063 L 106.199219 188.371094 L 100.394531 194.65625 L 101.320313 203.390625 L 93.421875 199.507813 L 85.527344 203.390625 L 86.835938 194.503906 L 80.644531 188.371094 L 89.628906 187.589844 L 93.421875 179.089844 "/>
<path style=" stroke:none;fill-rule:nonzero;fill:rgb(80.39856%,48.999023%,16.099548%);fill-opacity:1;" d="M 80.644531 188.371094 L 93.71875 191.738281 L 86.835938 194.503906 Z M 80.644531 188.371094 "/>
<path style=" stroke:none;fill-rule:nonzero;fill:rgb(80.39856%,48.999023%,16.099548%);fill-opacity:1;" d="M 85.527344 203.390625 L 93.71875 191.738281 L 93.421875 199.507813 Z M 85.527344 203.390625 "/>
<path style=" stroke:none;fill-rule:nonzero;fill:rgb(80.39856%,48.999023%,16.099548%);fill-opacity:1;" d="M 101.320313 203.390625 L 93.71875 191.738281 L 100.394531 194.65625 Z M 101.320313 203.390625 "/>
<path style=" stroke:none;fill-rule:nonzero;fill:rgb(80.39856%,48.999023%,16.099548%);fill-opacity:1;" d="M 106.199219 188.371094 L 93.875 191.632813 L 97.644531 187.164063 Z M 106.199219 188.371094 "/>
<path style=" stroke:none;fill-rule:nonzero;fill:rgb(80.39856%,48.999023%,16.099548%);fill-opacity:1;" d="M 93.40625 179.226563 L 93.71875 191.738281 L 89.628906 187.589844 Z M 93.40625 179.226563 "/>
<path style=" stroke:none;fill-rule:nonzero;fill:rgb(81.999207%,77.999878%,53.29895%);fill-opacity:1;" d="M 37.027344 179.089844 L 41.25 187.164063 L 49.804688 188.371094 L 43.996094 194.65625 L 44.925781 203.390625 L 37.027344 199.507813 L 29.132813 203.390625 L 30.441406 194.503906 L 24.25 188.371094 L 33.234375 187.589844 L 37.027344 179.089844 "/>
<path style=" stroke:none;fill-rule:nonzero;fill:rgb(80.39856%,48.999023%,16.099548%);fill-opacity:1;" d="M 24.25 188.371094 L 37.324219 191.738281 L 30.441406 194.503906 Z M 24.25 188.371094 "/>
<path style=" stroke:none;fill-rule:nonzero;fill:rgb(80.39856%,48.999023%,16.099548%);fill-opacity:1;" d="M 29.132813 203.390625 L 37.324219 191.738281 L 37.027344 199.507813 Z M 29.132813 203.390625 "/>
<path style=" stroke:none;fill-rule:nonzero;fill:rgb(80.39856%,48.999023%,16.099548%);fill-opacity:1;" d="M 44.925781 203.390625 L 37.324219 191.738281 L 43.996094 194.65625 Z M 44.925781 203.390625 "/>
<path style=" stroke:none;fill-rule:nonzero;fill:rgb(80.39856%,48.999023%,16.099548%);fill-opacity:1;" d="M 49.804688 188.371094 L 37.480469 191.632813 L 41.25 187.164063 Z M 49.804688 188.371094 "/>
<path style=" stroke:none;fill-rule:nonzero;fill:rgb(80.39856%,48.999023%,16.099548%);fill-opacity:1;" d="M 37.011719 179.226563 L 37.324219 191.738281 L 33.234375 187.589844 Z M 37.011719 179.226563 "/>
<path style=" stroke:none;fill-rule:nonzero;fill:rgb(100%,100%,100%);fill-opacity:1;" d="M 43.007813 126.046875 C 43.007813 97.941406 65.792969 75.15625 93.898438 75.15625 C 122.003906 75.15625 144.789063 97.941406 144.789063 126.046875 C 144.789063 154.152344 122.003906 176.9375 93.898438 176.9375 C 65.792969 176.9375 43.007813 154.152344 43.007813 126.046875 "/>
<path style=" stroke:none;fill-rule:nonzero;fill:rgb(81.999207%,77.999878%,53.29895%);fill-opacity:1;" d="M 149.816406 179.089844 L 154.039063 187.164063 L 162.59375 188.371094 L 156.785156 194.65625 L 157.714844 203.390625 L 149.816406 199.507813 L 141.921875 203.390625 L 143.230469 194.503906 L 137.039063 188.371094 L 146.019531 187.589844 L 149.816406 179.089844 "/>
<path style=" stroke:none;fill-rule:nonzero;fill:rgb(80.39856%,48.999023%,16.099548%);fill-opacity:1;" d="M 137.039063 188.371094 L 150.113281 191.738281 L 143.230469 194.503906 Z M 137.039063 188.371094 "/>
<path style=" stroke:none;fill-rule:nonzero;fill:rgb(80.39856%,48.999023%,16.099548%);fill-opacity:1;" d="M 141.921875 203.390625 L 150.113281 191.738281 L 149.816406 199.507813 Z M 141.921875 203.390625 "/>
<path style=" stroke:none;fill-rule:nonzero;fill:rgb(80.39856%,48.999023%,16.099548%);fill-opacity:1;" d="M 157.714844 203.390625 L 150.113281 191.738281 L 156.785156 194.65625 Z M 157.714844 203.390625 "/>
<path style=" stroke:none;fill-rule:nonzero;fill:rgb(80.39856%,48.999023%,16.099548%);fill-opacity:1;" d="M 162.59375 188.371094 L 150.269531 191.632813 L 154.039063 187.164063 Z M 162.59375 188.371094 "/>
<path style=" stroke:none;fill-rule:nonzero;fill:rgb(80.39856%,48.999023%,16.099548%);fill-opacity:1;" d="M 149.800781 179.226563 L 150.113281 191.738281 L 146.019531 187.589844 Z M 149.800781 179.226563 "/>
<path style=" stroke:none;fill-rule:nonzero;fill:rgb(6.298828%,56.898499%,27.099609%);fill-opacity:1;" d="M 70.882813 107.304688 C 71.222656 107.09375 71.5625 106.886719 71.90625 106.6875 C 76.582031 103.972656 81.6875 102.109375 87.074219 101.480469 C 91.058594 101.015625 96.417969 100.089844 105.035156 102.539063 C 105.035156 102.539063 117.023438 107.796875 110.003906 97.578125 C 100.617188 83.902344 79.082031 81.582031 66.421875 89.464844 C 53.347656 97.609375 46.375 114.929688 47.695313 130.078125 C 47.890625 132.335938 49.277344 147.015625 59.433594 157.171875 C 54.945313 152.683594 54.398438 137.4375 54.6875 131.953125 C 55.234375 121.554688 62.382813 112.59375 70.882813 107.304688 "/>
<path style=" stroke:none;fill-rule:nonzero;fill:rgb(93.299866%,14.498901%,14.099121%);fill-opacity:1;" d="M 121.148438 115.890625 C 121.167969 116.28125 121.1875 116.675781 121.191406 117.082031 C 121.324219 122.488281 120.503906 127.859375 118.449219 132.882813 C 115.355469 140.496094 111.695313 145.28125 108.867188 148.109375 C 108.867188 148.109375 97.390625 156.789063 110.824219 154.859375 C 127.242188 152.496094 139.742188 135.46875 138.925781 120.570313 C 138.09375 105.199219 126.269531 90.742188 112.355469 84.59375 C 110.292969 83.683594 96.761719 77.824219 82.96875 81.832031 C 89.0625 80.058594 102.679688 86.925781 107.355469 89.820313 C 116.195313 95.308594 120.605469 105.890625 121.148438 115.890625 "/>
<path style=" stroke:none;fill-rule:nonzero;fill:rgb(17.298889%,20.399475%,54.499817%);fill-opacity:1;" d="M 87.980469 154.9375 C 87.628906 154.746094 87.285156 154.554688 86.941406 154.347656 C 78.167969 149.183594 70.539063 137.574219 74.96875 143.679688 C 77.328125 146.925781 68.335938 133.355469 67.09375 127.5 C 67.09375 127.5 66.199219 113.742188 60.328125 125.597656 C 52.972656 140.460938 61.53125 160.390625 74.613281 167.566406 C 88.113281 174.972656 106.632813 172.558594 119.191406 163.992188 C 121.0625 162.722656 133.183594 154.316406 137.0625 140.488281 C 135.351563 146.597656 122.324219 154.546875 117.398438 156.976563 C 108.0625 161.59375 96.753906 159.75 87.980469 154.9375 "/>
<path style=" stroke:none;fill-rule:nonzero;fill:rgb(80.39856%,48.999023%,16.099548%);fill-opacity:1;" d="M 73.011719 132.933594 L 73.011719 116.980469 L 82.449219 116.980469 L 82.449219 119.683594 L 75.800781 119.683594 L 75.800781 123.460938 L 81.5625 123.460938 L 81.5625 126.164063 L 75.800781 126.164063 L 75.800781 132.933594 L 73.011719 132.933594 "/>
<path style=" stroke:none;fill-rule:nonzero;fill:rgb(80.39856%,48.999023%,16.099548%);fill-opacity:1;" d="M 84.636719 132.933594 L 84.636719 116.980469 L 87.429688 116.980469 L 87.429688 132.933594 L 84.636719 132.933594 "/>
<path style=" stroke:none;fill-rule:nonzero;fill:rgb(80.39856%,48.999023%,16.099548%);fill-opacity:1;" d="M 96.4375 127.066406 L 96.4375 124.359375 L 102.40625 124.359375 L 102.40625 130.75 C 101.820313 131.40625 100.980469 131.976563 99.878906 132.476563 C 98.773438 132.96875 97.652344 133.21875 96.519531 133.21875 C 95.078125 133.21875 93.824219 132.871094 92.757813 132.164063 C 91.6875 131.46875 90.886719 130.464844 90.34375 129.15625 C 89.804688 127.855469 89.539063 126.433594 89.539063 124.898438 C 89.539063 123.238281 89.839844 121.761719 90.445313 120.464844 C 91.046875 119.167969 91.921875 118.175781 93.082031 117.484375 C 93.96875 116.957031 95.066406 116.695313 96.375 116.695313 C 98.085938 116.695313 99.421875 117.105469 100.382813 117.933594 C 101.34375 118.761719 101.957031 119.902344 102.238281 121.367188 L 99.484375 121.980469 C 99.289063 121.191406 98.921875 120.574219 98.390625 120.121094 C 97.851563 119.664063 97.183594 119.441406 96.382813 119.441406 C 95.167969 119.441406 94.207031 119.890625 93.488281 120.78125 C 92.773438 121.679688 92.417969 123.007813 92.417969 124.769531 C 92.417969 126.667969 92.777344 128.097656 93.507813 129.042969 C 94.234375 129.996094 95.183594 130.46875 96.363281 130.46875 C 96.941406 130.46875 97.519531 130.339844 98.105469 130.070313 C 98.683594 129.804688 99.191406 129.480469 99.613281 129.105469 L 99.613281 127.066406 L 96.4375 127.066406 "/>
<path style=" stroke:none;fill-rule:nonzero;fill:rgb(80.39856%,48.999023%,16.099548%);fill-opacity:1;" d="M 113.722656 127.066406 L 116.425781 128.054688 C 116.011719 129.796875 115.316406 131.09375 114.363281 131.945313 C 113.40625 132.792969 112.191406 133.21875 110.714844 133.21875 C 108.890625 133.21875 107.386719 132.488281 106.214844 131.042969 C 105.035156 129.59375 104.449219 127.609375 104.449219 125.09375 C 104.449219 122.433594 105.042969 120.371094 106.226563 118.898438 C 107.40625 117.429688 108.960938 116.695313 110.886719 116.695313 C 112.566406 116.695313 113.9375 117.269531 114.980469 118.40625 C 115.605469 119.085938 116.070313 120.058594 116.382813 121.324219 L 113.636719 122.109375 C 113.472656 121.28125 113.128906 120.632813 112.617188 120.152344 C 112.101563 119.679688 111.480469 119.441406 110.746094 119.441406 C 109.734375 119.441406 108.910156 119.859375 108.28125 120.71875 C 107.644531 121.574219 107.328125 122.949219 107.328125 124.855469 C 107.328125 126.882813 107.640625 128.320313 108.265625 129.179688 C 108.882813 130.039063 109.691406 130.46875 110.695313 130.46875 C 111.425781 130.46875 112.054688 130.195313 112.582031 129.648438 C 113.105469 129.105469 113.488281 128.246094 113.722656 127.066406 "/>
</g>
</svg>
